<svg enable-background="new 0 0 242 73.3" viewBox="0 0 242 73.3" xmlns="http://www.w3.org/2000/svg"><g fill="#fff"><g transform="translate(48.999 20)"><path d="m-30.9 10.6v-2.6c-2 2-3.9 2.9-7.4 2.9-3.4 0-5.9-.9-7.7-2.7-1.7-1.9-2.6-4.3-2.5-6.8 0-4.8 3.3-8.7 10.3-8.7h7.1v-1.5c0-3.3-1.6-4.8-5.6-4.8-2.9 0-4.2.7-5.8 2.5l-4.8-4.7c3-3.2 5.9-4.2 10.9-4.2 8.5 0 12.9 3.6 12.9 10.7v19.9zm-.2-12.7h-6c-2.7 0-4.2 1.3-4.2 3.4s1.4 3.5 4.3 3.5c2.1 0 3.4-.2 4.7-1.4.8-.8 1.1-2 1.1-3.8z" transform="translate(24.102 21.16)"/><path d="m1.8-19.8h22.8v22.8h-7.3v-15.5h-15.5z"/><path d="m-25.6 53.1h-22.8v-22.8h7.3v15.5h15.5z"/></g><path d="m121.4 48.1c-.2 0-.4-.1-.4-.4v-1.2c-.9 1.2-2.5 1.9-4.9 1.9-3.2 0-5.9-1.6-5.9-5.4 0-3.9 3-5.7 7.4-5.7h3.2c.1 0 .2-.1.2-.2v-.7c0-1.6-.8-2.4-3.6-2.4-1.8 0-3.1.5-4 1.1-.2.1-.4.1-.5-.1l-1.6-2.9c-.1-.2-.1-.4.1-.5 1.5-1.1 3.7-1.8 6.6-1.8 5.8 0 7.9 2 7.9 6.4v11.4c0 .2-.1.4-.4.4zm-.5-5.9v-1.2c0-.1-.1-.2-.2-.2h-2.5c-2.2 0-3.2.6-3.2 2 0 1.2.9 1.9 2.6 1.9 2.2 0 3.3-.8 3.3-2.5z"/><path d="m136.3 48.4c-4.1 0-5.6-1.8-5.6-5.9v-8.1c0-.1-.1-.2-.2-.2h-1.1c-.2 0-.4-.1-.4-.4v-3c0-.2.1-.4.4-.4h1.1c.1 0 .2-.1.2-.2v-4.8c0-.2.1-.4.4-.4h4.4c.2 0 .4.1.4.4v4.8c0 .1.1.2.2.2h2.3c.2 0 .4.1.4.4v3c0 .2-.1.4-.4.4h-2.4c-.1 0-.2.1-.2.2v7.8c0 1.3.4 1.8 1.6 1.8h.9c.2 0 .4.1.4.4v3.6c0 .2-.1.4-.4.4z"/><path d="m148.5 48.4c-4.1 0-5.6-1.8-5.6-5.9v-8.1c0-.1-.1-.2-.2-.2h-1.1c-.2 0-.4-.1-.4-.4v-3c0-.2.1-.4.4-.4h1.1c.1 0 .2-.1.2-.2v-4.8c0-.2.1-.4.4-.4h4.4c.2 0 .4.1.4.4v4.8c0 .1.1.2.2.2h2.3c.2 0 .4.1.4.4v3c0 .2-.1.4-.4.4h-2.3c-.1 0-.2.1-.2.2v7.8c0 1.3.4 1.8 1.6 1.8h.9c.2 0 .4.1.4.4v3.6c0 .2-.1.4-.4.4z"/><path d="m154.3 43.5c-.4-1.1-.6-2.4-.6-4.2 0-1.9.2-3.2.6-4.3 1-3.2 3.8-5 7.6-5 3.9 0 6.6 1.9 7.7 5 .4 1.2.6 2.5.6 5.5 0 .2-.1.4-.4.4h-10.8c-.1 0-.2.1-.2.2 0 .4.1.7.2 1 .5 1.5 1.8 2.3 3.7 2.3 1.8 0 3-.6 4.1-1.6.2-.1.4-.2.5 0l2.4 2.3c.2.1.2.4 0 .5-1.7 1.8-4.3 3-7.6 3-3.9 0-6.7-1.9-7.8-5.1zm10.6-6.1c.1 0 .2-.1.2-.2 0-.5-.1-1-.2-1.3-.4-1.2-1.5-1.9-3-1.9s-2.6.7-3 1.9c-.1.4-.2.8-.2 1.3 0 .1.1.2.2.2z"/><path d="m185 48.1c-.2 0-.4-.1-.4-.4v-10.1c0-1.9-.9-3.2-2.7-3.2s-2.8 1.3-2.8 3.2v10.2c0 .2-.1.4-.4.4h-4.4c-.2 0-.4-.1-.4-.4v-17c0-.2.1-.4.4-.4h4.4c.2 0 .4.1.4.4v1.2c.8-1.1 2.3-2 4.6-2 3.9 0 6 2.7 6 6.6v11.2c0 .2-.1.4-.4.4.1-.1-4.3-.1-4.3-.1z"/><path d="m200.2 48.4c-4.1 0-5.6-1.8-5.6-5.9v-8.1c0-.1-.1-.2-.2-.2h-1.1c-.2 0-.4-.1-.4-.4v-3c0-.2.1-.4.4-.4h1.1c.1 0 .2-.1.2-.2v-4.8c0-.2.1-.4.4-.4h4.4c.2 0 .4.1.4.4v4.8c0 .1.1.2.2.2h2.3c.2 0 .4.1.4.4v3c0 .2-.1.4-.4.4h-2.3c-.1 0-.2.1-.2.2v7.8c0 1.3.4 1.8 1.6 1.8h.9c.2 0 .4.1.4.4v3.6c0 .2-.1.4-.4.4z"/><path d="m217.1 48.1c-.2 0-.4-.1-.4-.4v-1.3c-.9 1.2-2.3 2.1-4.5 2.1-3.9 0-6-2.7-6-6.6v-11.1c0-.2.1-.4.4-.4h4.4c.2 0 .4.1.4.4v10.2c0 1.9.9 3.2 2.7 3.2s2.7-1.3 2.7-3.2v-10.2c0-.2.1-.4.4-.4h4.4c.2 0 .4.1.4.4v17c0 .2-.1.4-.4.4z"/><path d="m225.4 45.8c-.1-.1-.1-.4 0-.5l2.4-2.7c.1-.1.3-.1.5 0 1.6 1.2 3.6 1.9 5.4 1.9 1.9 0 2.7-.7 2.7-1.7 0-.8-.5-1.4-2.5-1.5l-2-.2c-3.7-.4-5.8-2.2-5.8-5.4 0-3.5 2.7-5.7 7.3-5.7 3 0 5.5 1 7.2 2.2.1.1.2.4 0 .5l-2.1 2.5c-.1.2-.3.2-.5.1-1.2-.8-3-1.4-4.8-1.4-1.5 0-2.2.6-2.2 1.5 0 .8.4 1.3 2.5 1.5l1.9.2c4.2.4 5.9 2.4 5.9 5.4 0 3.6-2.9 6.1-7.9 6.1-3.7 0-6.4-1.3-8-2.8z"/></g></svg>