<svg clip-rule="evenodd" fill-rule="evenodd" stroke-linejoin="round" stroke-miterlimit="2" viewBox="0 0 73 73" xmlns="http://www.w3.org/2000/svg"><g fill="#fff" fill-rule="nonzero" transform="translate(48.4 19.8)"><path d="m-30.9 10.6v-2.6c-2 2-3.9 2.9-7.4 2.9-3.4 0-5.9-.9-7.7-2.7-1.7-1.9-2.6-4.3-2.5-6.8 0-4.8 3.3-8.7 10.3-8.7h7.1v-1.5c0-3.3-1.6-4.8-5.6-4.8-2.9 0-4.2.7-5.8 2.5l-4.8-4.7c3-3.2 5.9-4.2 10.9-4.2 8.5 0 12.9 3.6 12.9 10.7v19.9zm-.2-12.7h-6c-2.7 0-4.2 1.3-4.2 3.4s1.4 3.5 4.3 3.5c2.1 0 3.4-.2 4.7-1.4.8-.8 1.1-2 1.1-3.8z" transform="translate(24.102 21.16)"/><path d="m1.8-19.8h22.8v22.8h-7.3v-15.5h-15.5z"/><path d="m-25.6 53.1h-22.8v-22.8h7.3v15.5h15.5z"/></g></svg>